<svg id="visual" viewBox="0 0 1920 1080" width="1920" height="1080" xmlns="http://www.w3.org/2000/svg" xmlns:xlink="http://www.w3.org/1999/xlink" version="1.1"><rect x="0" y="0" width="1920" height="1080" fill="#f5f5f5"></rect><path d="M0 836L120 766L240 829L360 824L480 767L600 782L720 803L840 758L960 809L1080 790L1200 816L1320 756L1440 776L1560 781L1680 789L1800 788L1920 840L1920 1081L1800 1081L1680 1081L1560 1081L1440 1081L1320 1081L1200 1081L1080 1081L960 1081L840 1081L720 1081L600 1081L480 1081L360 1081L240 1081L120 1081L0 1081Z" fill="#b7af9f"></path><path d="M0 824L120 831L240 897L360 863L480 825L600 893L720 897L840 865L960 881L1080 888L1200 864L1320 854L1440 873L1560 829L1680 849L1800 848L1920 833L1920 1081L1800 1081L1680 1081L1560 1081L1440 1081L1320 1081L1200 1081L1080 1081L960 1081L840 1081L720 1081L600 1081L480 1081L360 1081L240 1081L120 1081L0 1081Z" fill="#c0baad"></path><path d="M0 951L120 942L240 921L360 958L480 917L600 939L720 954L840 898L960 952L1080 937L1200 901L1320 944L1440 900L1560 921L1680 920L1800 933L1920 926L1920 1081L1800 1081L1680 1081L1560 1081L1440 1081L1320 1081L1200 1081L1080 1081L960 1081L840 1081L720 1081L600 1081L480 1081L360 1081L240 1081L120 1081L0 1081Z" fill="#c9c6bb"></path><path d="M0 985L120 994L240 975L360 987L480 997L600 974L720 981L840 1002L960 1011L1080 984L1200 1001L1320 979L1440 1014L1560 1016L1680 992L1800 992L1920 1011L1920 1081L1800 1081L1680 1081L1560 1081L1440 1081L1320 1081L1200 1081L1080 1081L960 1081L840 1081L720 1081L600 1081L480 1081L360 1081L240 1081L120 1081L0 1081Z" fill="#d2d1c9"></path></svg>